<svg xmlns="http://www.w3.org/2000/svg" data-name="Layer 1" viewBox="0 0 512 512"><path fill="#00efd1" d="M114.5,151.43V298.01a24.715,24.715,0,0,0,24.72,24.72H372.78a24.7,24.7,0,0,0,24.72-24.72V145.64a24.717,24.717,0,0,0-24.72-24.72H139.22a24.717,24.717,0,0,0-24.72,24.72ZM476.08,59.32V377.95H140.21L35.92,452.68V59.32Z"/><path fill="#f4b844" d="M397.5,151.42V298.01a24.533,24.533,0,0,1-1.43,8.3l-.03-.01-87.57-85.01Z"/><path fill="#00acea" d="M308.47,221.29,276.22,246.6a30.883,30.883,0,0,1-37.99,0l-32.37-24.9L114.5,151.43v-5.79a24.717,24.717,0,0,1,24.72-24.72H372.78a24.717,24.717,0,0,1,24.72,24.72v5.78Z"/><path fill="#fedb41" d="M396.04,306.3l.03.01a24.718,24.718,0,0,1-23.29,16.42H139.22a24.717,24.717,0,0,1-23.29-16.43h.01l89.92-84.6,32.37,24.9a30.883,30.883,0,0,0,37.99,0l32.25-25.31Z"/><path fill="#f4b844" d="M205.86,221.7l-89.92,84.6h-.01a24.475,24.475,0,0,1-1.43-8.29V151.43Z"/><path fill="#083863" d="M139.22,331H372.78a32.581,32.581,0,0,0,30.569-21.851A33.057,33.057,0,0,0,405,298.01V145.64A32.265,32.265,0,0,0,372.78,113H139.22C121.178,113,106,127.6,106,145.64V298.01A33.744,33.744,0,0,0,139.22,331Zm233.56-16H139.22a16.871,16.871,0,0,1-13.4-6.874l80.563-75.864,26.931,20.68a38.851,38.851,0,0,0,47.848-.04l26.754-21,78.319,76.163A16.882,16.882,0,0,1,372.78,315ZM389,288.8l-68.886-66.872L389,167.868ZM122,145.64c0-9.22,8-16.64,17.22-16.64H372.78C382,129,389,136.42,389,145.64v1.889L271.048,240.293a23.051,23.051,0,0,1-28.316-.034L122,147.491Zm0,22.035,71.034,54.638L122,289.144Z"/><path fill="#083863" d="M476.08,51H35.92A8.211,8.211,0,0,0,28,59.32V452.68a7.974,7.974,0,0,0,12.59,6.528L142.78,386h333.3a7.974,7.974,0,0,0,7.92-8.05V59.32A8.211,8.211,0,0,0,476.08,51ZM468,370H140.21a7.861,7.861,0,0,0-4.62,1.472L44,437.106V67H468Z"/></svg>