<svg xmlns="http://www.w3.org/2000/svg" viewBox="0 0 64 64"><g data-name="Layer 1"><path fill="#168fd6" d="M61 12.81A4.1662 4.1662 0 0 1 56.77 17H43V11a2.00587 2.00587 0 0 1 2-2H57a3.87458 3.87458 0 0 1 .48.03A3.99952 3.99952 0 0 1 61 12.81zM21 11v6H7.23a4.31881 4.31881 0 0 1-3.67-2.06A3.62669 3.62669 0 0 1 3 12.81 4.00257 4.00257 0 0 1 7 9H19A2.00583 2.00583 0 0 1 21 11z"/><path fill="#56b5ef" d="M61,13V50a5.00181,5.00181,0,0,1-5,5H8a4.99435,4.99435,0,0,1-5-5V13a4.00309,4.00309,0,0,0,4,4H57a3.65844,3.65844,0,0,0,1-.13A3.99154,3.99154,0,0,0,61,13Z"/><path fill="#fff" d="M58,16.87V48a5.00181,5.00181,0,0,1-5,5H5a4.92269,4.92269,0,0,1-1.09-.12A5.02854,5.02854,0,0,1,3,50V14.87a2.98651,2.98651,0,0,0,.52.1A4.00657,4.00657,0,0,0,7,17H57A3.65844,3.65844,0,0,0,58,16.87Z" opacity=".2"/><rect width="15" height="15" x="33" y="24" fill="#ccdde7" rx="2"/><path fill="#fff" d="M45,24V35a2.00587,2.00587,0,0,1-2,2H33V26a2.00587,2.00587,0,0,1,2-2Z" opacity=".2"/><rect width="15" height="15" x="23" y="33" fill="#ccdde7" rx="2"/><path fill="#fff" d="M35,33V44a2.00587,2.00587,0,0,1-2,2H23V35a2.00587,2.00587,0,0,1,2-2Z" opacity=".2"/><rect width="15" height="15" x="13" y="24" fill="#ccdde7" rx="2"/><path fill="#fff" d="M58 10.81A4.1662 4.1662 0 0 1 53.77 15H43V11a2.00587 2.00587 0 0 1 2-2H57a3.87458 3.87458 0 0 1 .48.03A3.96838 3.96838 0 0 1 58 10.81zM18 9v6H4.23a3.71264 3.71264 0 0 1-.67-.06A3.969 3.969 0 0 1 7.00006 9.00008zM25 24V35a2.00587 2.00587 0 0 1-2 2H13V26a2.00587 2.00587 0 0 1 2-2z" opacity=".2"/><path fill="#043968" d="M61.99463,12.77051A5.03559,5.03559,0,0,0,57,8.00982l-12,0a3.00328,3.00328,0,0,0-3,3v5H22v-5a3.00328,3.00328,0,0,0-3-3H7a5.03717,5.03717,0,0,0-4.99994,5.00005L2,50.00977a6.00657,6.00657,0,0,0,6,6H56a6.00657,6.00657,0,0,0,6-6C61.995,49.7702,62.00973,12.98423,61.99463,12.77051ZM44,11.00977a1.001,1.001,0,0,1,1-1H57a2.96264,2.96264,0,0,1,2.1786,4.96488,3.339,3.339,0,0,1-2.40419,1.03512H44ZM4.87207,10.8916A3.01907,3.01907,0,0,1,7,10.00977H19a1.001,1.001,0,0,1,1,1v5H7.22559C4.59092,16.08447,2.89363,12.81183,4.87207,10.8916ZM60,50.00977a4.00427,4.00427,0,0,1-4,4H8a4.00427,4.00427,0,0,1-4-4v-33.002a4.976,4.976,0,0,0,3,1.002H57a4.976,4.976,0,0,0,3-1.002Z"/><path fill="#043968" d="M46,23.00977H35a3.00328,3.00328,0,0,0-3,3v6H29v-6a3.00328,3.00328,0,0,0-3-3H15a3.00328,3.00328,0,0,0-3,3v11a3.00328,3.00328,0,0,0,3,3h7v6a3.00328,3.00328,0,0,0,3,3H36a3.00328,3.00328,0,0,0,3-3v-6h7a3.00328,3.00328,0,0,0,3-3v-11A3.00328,3.00328,0,0,0,46,23.00977Zm-32,14v-11a1.001,1.001,0,0,1,1-1H26a1.001,1.001,0,0,1,1,1v11a1.001,1.001,0,0,1-1,1H15A1.001,1.001,0,0,1,14,37.00977Zm23,9a1.001,1.001,0,0,1-1,1H25a1.001,1.001,0,0,1-1-1v-6h2a3.00328,3.00328,0,0,0,3-3v-3h7a1.001,1.001,0,0,1,1,1Zm10-9a1.001,1.001,0,0,1-1,1H39v-3a3.00328,3.00328,0,0,0-3-3H34v-6a1.001,1.001,0,0,1,1-1H46a1.001,1.001,0,0,1,1,1Z"/></g></svg>